<svg viewBox="0 0 1280 800" width="1280" height="800" xmlns="http://www.w3.org/2000/svg">
<defs><style>
text{font-family:Inter,Arial,sans-serif}
.tp{fill:#2B2A28}.tsx{fill:#6B6A64}.tm{fill:#9A9991}.white{fill:#FFFFFF}.wd{fill:#D9DCFE}
.blue{fill:#5661F2}.navA{fill:#6E78F4}
.s1{fill:#F4F2EC}
.card{fill:#FFFFFF;stroke:#E8E6DF;stroke-width:1}
.field{fill:#FFFFFF;stroke:#E8E6DF;stroke-width:1}
.ln{stroke:#E8E6DF;stroke-width:1}
.ico{fill:none;stroke:#6B6A64;stroke-width:1.7;stroke-linecap:round;stroke-linejoin:round}
.icoB{fill:none;stroke:#5661F2;stroke-width:1.7;stroke-linecap:round;stroke-linejoin:round}
.icoW{fill:none;stroke:#FFFFFF;stroke-width:1.7;stroke-linecap:round;stroke-linejoin:round}
.icoWd{fill:none;stroke:#D9DCFE;stroke-width:1.7;stroke-linecap:round;stroke-linejoin:round}
</style></defs>
<rect width="1280" height="800" fill="#FFFFFF"/>
<rect x="0" y="0" width="1280" height="44" fill="#F4F2EC"/><line x1="0" y1="44" x2="1280" y2="44" class="ln"/>
<circle cx="22" cy="22" r="5" fill="#EB5757"/><circle cx="40" cy="22" r="5" fill="#F2C94C"/><circle cx="58" cy="22" r="5" fill="#27AE60"/>
<rect x="86" y="12" width="420" height="22" rx="7" class="card"/><text x="100" y="27" font-size="11" class="tm">events.school.edu</text>
<rect x="0" y="44" width="230" height="756" class="blue"/>
<rect x="28" y="70" width="30" height="30" rx="9" fill="#FFFFFF" fill-opacity="0.2"/><rect x="41.5" y="76" width="3" height="18" rx="1.5" class="white"/><rect x="34" y="83.5" width="18" height="3" rx="1.5" class="white"/>
<text x="68" y="90" font-size="15" font-weight="500" class="white">Eventized</text>
<rect x="16" y="132" width="198" height="40" rx="10" class="navA"/><path d="M30 154 L39 145 L48 154 V162 H30 Z" class="icoW"/><text x="60" y="157" font-size="13" font-weight="500" class="white">Home</text>
<circle cx="38" cy="200" r="6.5" class="icoWd"/><line x1="43" y1="205" x2="47" y2="209" class="icoWd"/><text x="60" y="205" font-size="13" class="wd">Search</text>
<rect x="30" y="240" width="18" height="16" rx="2.5" class="icoWd"/><line x1="30" y1="245" x2="48" y2="245" class="icoWd"/><line x1="35" y1="236" x2="35" y2="241" class="icoWd"/><line x1="43" y1="236" x2="43" y2="241" class="icoWd"/><text x="60" y="253" font-size="13" class="wd">Calendar</text>
<path d="M32 290 h14 v20 l-7 -5 -7 5 z" class="icoWd"/><text x="60" y="305" font-size="13" class="wd">Bookmark</text>
<path d="M30 350 a8 8 0 0 1 16 0 v6 l2 3 H28 l2 -3 z" transform="translate(0 -2)" class="icoWd"/><text x="60" y="353" font-size="13" class="wd">Messages</text>
<path d="M32 398 v-4 a7 7 0 0 1 14 0 v4 l2 3 H30 Z" class="icoWd"/><text x="60" y="401" font-size="13" class="wd">Notifications</text>
<line x1="16" y1="744" x2="214" y2="744" stroke="#6E78F4"/>
<circle cx="34" cy="772" r="15" fill="#FFFFFF" fill-opacity="0.25"/><text x="58" y="769" font-size="13" font-weight="500" class="white">User</text><text x="58" y="784" font-size="11" class="wd">Student</text>
<text x="262" y="78" font-size="11" class="tm">Current location</text><text x="262" y="96" font-size="13" font-weight="500" class="tp">New York, US</text><path d="M356 90 l5 5 5 -5" class="ico"/>
<rect x="470" y="68" width="560" height="40" rx="10" class="field"/><circle cx="492" cy="88" r="6.5" class="ico"/><line x1="497" y1="93" x2="501" y2="97" class="ico"/><text x="514" y="93" font-size="13" class="tm">Search events</text>
<circle cx="1206" cy="88" r="18" fill="#ECEDFE"/><circle cx="1206" cy="83" r="5" class="icoB"/><path d="M1198 97 a8 7 0 0 1 16 0" class="icoB"/>
<rect x="262" y="132" width="52" height="30" rx="15" class="blue"/><text x="288" y="151" text-anchor="middle" font-size="12" class="white">All</text>
<rect x="322" y="132" width="74" height="30" rx="15" fill="#FDEFE3"/><text x="359" y="151" text-anchor="middle" font-size="12" fill="#B26B2E">Sports</text>
<rect x="404" y="132" width="66" height="30" rx="15" fill="#ECEDFE"/><text x="437" y="151" text-anchor="middle" font-size="12" fill="#3A37B5">Music</text>
<rect x="478" y="132" width="54" height="30" rx="15" fill="#FBEAEA"/><text x="505" y="151" text-anchor="middle" font-size="12" fill="#A33333">Art</text>
<rect x="540" y="132" width="60" height="30" rx="15" fill="#E6F4EC"/><text x="570" y="151" text-anchor="middle" font-size="12" fill="#1E7A45">Food</text>
<text x="262" y="196" font-size="15" font-weight="500" class="tp">Trending events</text><text x="1030" y="196" text-anchor="end" font-size="12" fill="#5661F2">See all</text>
<g>
<rect x="262" y="210" width="306" height="208" rx="14" class="card"/><rect x="263" y="211" width="304" height="106" rx="13" fill="#7B6CF6"/>
<rect x="276" y="224" width="36" height="40" rx="9" class="white"/><text x="294" y="239" text-anchor="middle" font-size="8" fill="#B26B2E">DEC</text><text x="294" y="256" text-anchor="middle" font-size="14" font-weight="500" fill="#5661F2">14</text>
<circle cx="548" cy="242" r="13" class="white"/><path d="M543 234 h10 v15 l-5 -3 -5 3 z" class="icoB"/>
<text x="278" y="346" font-size="13.5" font-weight="500" class="tp">International band concert</text>
<path d="M280 360 a4 4 0 0 1 4 4 c0 3 -4 6 -4 6 s-4 -3 -4 -6 a4 4 0 0 1 4 -4 z" class="ico"/><text x="292" y="368" font-size="11" class="tsx">Gala Convention Center</text>
<text x="278" y="398" font-size="13" font-weight="500" fill="#5661F2">$25</text>
<circle cx="520" cy="393" r="9" fill="#C9CDFB" stroke="#FFFFFF" stroke-width="1.5"/><circle cx="533" cy="393" r="9" fill="#FAD4C0" stroke="#FFFFFF" stroke-width="1.5"/><text x="548" y="397" font-size="10" class="tsx">+240</text>
</g>
<g>
<rect x="584" y="210" width="306" height="208" rx="14" class="card"/><rect x="585" y="211" width="304" height="106" rx="13" fill="#F2A78D"/>
<rect x="598" y="224" width="36" height="40" rx="9" class="white"/><text x="616" y="239" text-anchor="middle" font-size="8" fill="#B26B2E">DEC</text><text x="616" y="256" text-anchor="middle" font-size="14" font-weight="500" fill="#5661F2">18</text>
<circle cx="870" cy="242" r="13" class="white"/><path d="M865 234 h10 v15 l-5 -3 -5 3 z" class="icoB"/>
<text x="600" y="346" font-size="13.5" font-weight="500" class="tp">Jo Malone mother's day</text>
<path d="M602 360 a4 4 0 0 1 4 4 c0 3 -4 6 -4 6 s-4 -3 -4 -6 a4 4 0 0 1 4 -4 z" class="ico"/><text x="614" y="368" font-size="11" class="tsx">Radius Gallery</text>
<text x="600" y="398" font-size="13" font-weight="500" fill="#5661F2">Free</text>
<circle cx="842" cy="393" r="9" fill="#BFE3D6" stroke="#FFFFFF" stroke-width="1.5"/><circle cx="855" cy="393" r="9" fill="#C9CDFB" stroke="#FFFFFF" stroke-width="1.5"/><text x="870" y="397" font-size="10" class="tsx">+86</text>
</g>
<g>
<rect x="906" y="210" width="306" height="208" rx="14" class="card"/><rect x="907" y="211" width="304" height="106" rx="13" fill="#BFE3D6"/>
<rect x="920" y="224" width="36" height="40" rx="9" class="white"/><text x="938" y="239" text-anchor="middle" font-size="8" fill="#B26B2E">DEC</text><text x="938" y="256" text-anchor="middle" font-size="14" font-weight="500" fill="#5661F2">20</text>
<circle cx="1192" cy="242" r="13" class="white"/><path d="M1187 234 h10 v15 l-5 -3 -5 3 z" class="icoB"/>
<text x="922" y="346" font-size="13.5" font-weight="500" class="tp">Women's leadership conf.</text>
<path d="M924 360 a4 4 0 0 1 4 4 c0 3 -4 6 -4 6 s-4 -3 -4 -6 a4 4 0 0 1 4 -4 z" class="ico"/><text x="936" y="368" font-size="11" class="tsx">Downtown Hall</text>
<text x="922" y="398" font-size="13" font-weight="500" fill="#5661F2">$15</text>
<circle cx="1164" cy="393" r="9" fill="#F4D06A" stroke="#FFFFFF" stroke-width="1.5"/><circle cx="1177" cy="393" r="9" fill="#C9CDFB" stroke="#FFFFFF" stroke-width="1.5"/><text x="1192" y="397" font-size="10" class="tsx">+54</text>
</g>
<text x="262" y="456" font-size="15" font-weight="500" class="tp">Nearby you</text>
<rect x="262" y="470" width="950" height="64" rx="14" class="card"/><rect x="274" y="482" width="40" height="40" rx="10" fill="#F4D06A"/><text x="330" y="498" font-size="13" font-weight="500" class="tp">International gala music festival</text><text x="330" y="516" font-size="11" class="tsx">Dec 19 · 7:00 PM · Open Air Park</text><text x="1190" y="506" text-anchor="end" font-size="12" font-weight="500" fill="#5661F2">$30</text>
</svg>
