<svg viewBox="0 0 1280 800" width="1280" height="800" xmlns="http://www.w3.org/2000/svg">
<defs><style>
text{font-family:Inter,Arial,sans-serif}
.tp{fill:#2B2A28}.tsx{fill:#6B6A64}.tm{fill:#9A9991}.white{fill:#FFFFFF}.wd{fill:#D9DCFE}.red{fill:#EB5757}
.blue{fill:#5661F2}.navA{fill:#6E78F4}
.card{fill:#FFFFFF;stroke:#E8E6DF;stroke-width:1}
.focus{fill:#FFFFFF;stroke:#5661F2;stroke-width:1.4}
.ln{stroke:#E8E6DF;stroke-width:1}
.ico{fill:none;stroke:#6B6A64;stroke-width:1.7;stroke-linecap:round;stroke-linejoin:round}
.icoB{fill:none;stroke:#5661F2;stroke-width:1.7;stroke-linecap:round;stroke-linejoin:round}
.icoW{fill:none;stroke:#FFFFFF;stroke-width:1.7;stroke-linecap:round;stroke-linejoin:round}
.icoWd{fill:none;stroke:#D9DCFE;stroke-width:1.7;stroke-linecap:round;stroke-linejoin:round}
.icoM{fill:none;stroke:#9A9991;stroke-width:1.7;stroke-linecap:round;stroke-linejoin:round}
</style></defs>
<rect width="1280" height="800" fill="#FFFFFF"/>
<rect x="0" y="0" width="1280" height="44" fill="#F4F2EC"/><line x1="0" y1="44" x2="1280" y2="44" class="ln"/>
<circle cx="22" cy="22" r="5" fill="#EB5757"/><circle cx="40" cy="22" r="5" fill="#F2C94C"/><circle cx="58" cy="22" r="5" fill="#27AE60"/>
<rect x="86" y="12" width="420" height="22" rx="7" class="card"/><text x="100" y="27" font-size="11" class="tm">events.school.edu/search</text>
<rect x="0" y="44" width="230" height="756" class="blue"/>
<rect x="28" y="70" width="30" height="30" rx="9" fill="#FFFFFF" fill-opacity="0.2"/><rect x="41.5" y="76" width="3" height="18" rx="1.5" class="white"/><rect x="34" y="83.5" width="18" height="3" rx="1.5" class="white"/>
<text x="68" y="90" font-size="15" font-weight="500" class="white">Eventized</text>
<path d="M30 154 L39 145 L48 154 V162 H30 Z" class="icoWd"/><text x="60" y="157" font-size="13" class="wd">Home</text>
<rect x="16" y="180" width="198" height="40" rx="10" class="navA"/><circle cx="38" cy="200" r="6.5" class="icoW"/><line x1="43" y1="205" x2="47" y2="209" class="icoW"/><text x="60" y="205" font-size="13" font-weight="500" class="white">Search</text>
<rect x="30" y="240" width="18" height="16" rx="2.5" class="icoWd"/><line x1="30" y1="245" x2="48" y2="245" class="icoWd"/><line x1="35" y1="236" x2="35" y2="241" class="icoWd"/><line x1="43" y1="236" x2="43" y2="241" class="icoWd"/><text x="60" y="253" font-size="13" class="wd">Calendar</text>
<path d="M32 290 h14 v20 l-7 -5 -7 5 z" class="icoWd"/><text x="60" y="305" font-size="13" class="wd">Bookmark</text>
<path d="M32 350 v-4 a7 7 0 0 1 14 0 v4 l2 3 H30 Z" class="icoWd"/><text x="60" y="353" font-size="13" class="wd">Notifications</text>
<rect x="262" y="68" width="950" height="44" rx="10" class="focus"/><circle cx="286" cy="90" r="7" class="icoB"/><line x1="291" y1="95" x2="296" y2="100" class="icoB"/><text x="310" y="95" font-size="13" class="tp">jazz</text><line x1="1180" y1="84" x2="1192" y2="84" class="icoM"/><line x1="1180" y1="90" x2="1190" y2="90" class="icoM"/><line x1="1180" y1="96" x2="1194" y2="96" class="icoM"/>
<text x="262" y="148" font-size="12" class="tm">Popular results</text>
<rect x="262" y="166" width="56" height="56" rx="12" fill="#7B6CF6"/><text x="334" y="186" font-size="10" font-weight="500" class="red">TUE, DEC 14 · 6:00 PM</text><text x="334" y="206" font-size="14" font-weight="500" class="tp">A virtual evening of smooth jazz</text><path d="M1196 174 h12 v18 l-6 -4 -6 4 z" class="icoM"/>
<line x1="262" y1="238" x2="1212" y2="238" class="ln"/>
<rect x="262" y="252" width="56" height="56" rx="12" fill="#F2A78D"/><text x="334" y="272" font-size="10" font-weight="500" class="red">WED, DEC 15 · 2:00 PM</text><text x="334" y="292" font-size="14" font-weight="500" class="tp">Jo malone london's mother's day</text><path d="M1196 260 h12 v18 l-6 -4 -6 4 z" class="icoM"/>
<line x1="262" y1="324" x2="1212" y2="324" class="ln"/>
<rect x="262" y="338" width="56" height="56" rx="12" fill="#BFE3D6"/><text x="334" y="358" font-size="10" font-weight="500" class="red">SAT, DEC 18 · 10:00 AM</text><text x="334" y="378" font-size="14" font-weight="500" class="tp">Women's leadership conference</text><path d="M1196 346 h12 v18 l-6 -4 -6 4 z" class="icoM"/>
<line x1="262" y1="410" x2="1212" y2="410" class="ln"/>
<rect x="262" y="424" width="56" height="56" rx="12" fill="#F4D06A"/><text x="334" y="444" font-size="10" font-weight="500" class="red">SUN, DEC 19 · 7:00 PM</text><text x="334" y="464" font-size="14" font-weight="500" class="tp">International gala music festival</text><path d="M1196 432 h12 v18 l-6 -4 -6 4 z" class="icoM"/>
<line x1="262" y1="496" x2="1212" y2="496" class="ln"/>
<rect x="262" y="510" width="56" height="56" rx="12" fill="#C9CDFB"/><text x="334" y="530" font-size="10" font-weight="500" class="red">FRI, DEC 24 · 8:00 PM</text><text x="334" y="550" font-size="14" font-weight="500" class="tp">International kids safe parents night</text><path d="M1196 518 h12 v18 l-6 -4 -6 4 z" class="icoM"/>
</svg>
