<svg viewBox="0 0 1280 800" width="1280" height="800" xmlns="http://www.w3.org/2000/svg">
<defs><style>
text{font-family:Inter,Arial,sans-serif}
.tp{fill:#2B2A28}.tsx{fill:#6B6A64}.tm{fill:#9A9991}.white{fill:#FFFFFF}
.blue{fill:#5661F2}
.card{fill:#FFFFFF;stroke:#E8E6DF;stroke-width:1}
.ln{stroke:#E8E6DF;stroke-width:1}
.icoB{fill:none;stroke:#5661F2;stroke-width:1.7;stroke-linecap:round;stroke-linejoin:round}
</style></defs>
<rect width="1280" height="800" fill="#FFFFFF"/>
<rect x="0" y="0" width="1280" height="44" fill="#F4F2EC"/><line x1="0" y1="44" x2="1280" y2="44" class="ln"/>
<circle cx="22" cy="22" r="5" fill="#EB5757"/><circle cx="40" cy="22" r="5" fill="#F2C94C"/><circle cx="58" cy="22" r="5" fill="#27AE60"/>
<rect x="86" y="12" width="420" height="22" rx="7" class="card"/><text x="100" y="27" font-size="11" class="tm">events.school.edu/me</text>
<rect x="0" y="44" width="1280" height="130" class="blue"/>
<circle cx="120" cy="174" r="46" fill="#FAD4C0" stroke="#FFFFFF" stroke-width="5"/>
<text x="186" y="200" font-size="20" font-weight="500" class="tp">Alex Rivera</text><text x="186" y="222" font-size="12.5" class="tsx">Student · Grade 11</text>
<text x="846" y="196" text-anchor="middle" font-size="17" font-weight="500" class="tp">350</text><text x="846" y="216" text-anchor="middle" font-size="11" class="tm">Following</text>
<line x1="908" y1="184" x2="908" y2="216" class="ln"/>
<text x="970" y="196" text-anchor="middle" font-size="17" font-weight="500" class="tp">346</text><text x="970" y="216" text-anchor="middle" font-size="11" class="tm">Followers</text>
<rect x="1052" y="186" width="164" height="40" rx="10" class="card"/><path d="M1086 198 l8 8 -8 8 -4 1 1 -4 z" transform="translate(-2 -2)" class="icoB"/><text x="1112" y="211" font-size="13" font-weight="500" fill="#5661F2">Edit profile</text>
<text x="64" y="290" font-size="14" font-weight="500" class="tp">About me</text>
<text x="64" y="316" font-size="13" class="tsx">Enjoy your favorite events with friends and family. I love live music, campus festivals,</text>
<text x="64" y="336" font-size="13" class="tsx">and good food trucks. Always up for discovering something new.</text>
<text x="64" y="384" font-size="14" font-weight="500" class="tp">Interests</text>
<rect x="64" y="400" width="124" height="32" rx="16" fill="#ECEDFE"/><text x="126" y="421" text-anchor="middle" font-size="12.5" fill="#3A37B5">Games online</text>
<rect x="200" y="400" width="92" height="32" rx="16" fill="#FDEFE3"/><text x="246" y="421" text-anchor="middle" font-size="12.5" fill="#B26B2E">Concert</text>
<rect x="304" y="400" width="64" height="32" rx="16" fill="#FBEAEA"/><text x="336" y="421" text-anchor="middle" font-size="12.5" fill="#A33333">Art</text>
<rect x="380" y="400" width="80" height="32" rx="16" fill="#E6F4EC"/><text x="420" y="421" text-anchor="middle" font-size="12.5" fill="#1E7A45">Music</text>
<rect x="472" y="400" width="116" height="32" rx="16" fill="#ECEDFE"/><text x="530" y="421" text-anchor="middle" font-size="12.5" fill="#3A37B5">Food trucks</text>
<rect x="600" y="400" width="80" height="32" rx="16" fill="#FDEFE3"/><text x="640" y="421" text-anchor="middle" font-size="12.5" fill="#B26B2E">Sports</text>
</svg>
