<svg viewBox="0 0 1280 800" width="1280" height="800" xmlns="http://www.w3.org/2000/svg">
<defs><style>
text{font-family:Inter,Arial,sans-serif}
.tp{fill:#2B2A28}.tsx{fill:#6B6A64}.tm{fill:#9A9991}.white{fill:#FFFFFF}.red{fill:#EB5757}
.blue{fill:#5661F2}
.card{fill:#FFFFFF;stroke:#E8E6DF;stroke-width:1}
.ln{stroke:#E8E6DF;stroke-width:1}
.icoW{fill:none;stroke:#FFFFFF;stroke-width:1.7;stroke-linecap:round;stroke-linejoin:round}
.icoB{fill:none;stroke:#5661F2;stroke-width:1.7;stroke-linecap:round;stroke-linejoin:round}
</style></defs>
<rect width="1280" height="800" fill="#FFFFFF"/>
<rect x="0" y="0" width="1280" height="44" fill="#F4F2EC"/><line x1="0" y1="44" x2="1280" y2="44" class="ln"/>
<circle cx="22" cy="22" r="5" fill="#EB5757"/><circle cx="40" cy="22" r="5" fill="#F2C94C"/><circle cx="58" cy="22" r="5" fill="#27AE60"/>
<rect x="86" y="12" width="420" height="22" rx="7" class="card"/><text x="100" y="27" font-size="11" class="tm">events.school.edu/o/ashfak/events</text>
<circle cx="104" cy="120" r="32" fill="#C9CDFB"/>
<text x="150" y="114" font-size="19" font-weight="500" class="tp">Ashfak Sayem</text><text x="150" y="134" font-size="12.5" class="tsx">Organizer · Music club</text>
<rect x="1026" y="104" width="100" height="38" rx="10" class="blue"/><circle cx="1050" cy="123" r="5" class="icoW"/><path d="M1042 134 a8 7 0 0 1 16 0" class="icoW"/><text x="1078" y="128" font-size="12.5" font-weight="500" class="white">Follow</text>
<rect x="1136" y="104" width="100" height="38" rx="10" class="card"/><path d="M1156 116 h14 v10 h-9 l-3 3 v-3 h-2 z" class="icoB"/><text x="1184" y="128" font-size="12.5" fill="#5661F2">Message</text>
<text x="64" y="200" font-size="13.5" class="tsx">About</text>
<text x="148" y="200" font-size="13.5" font-weight="500" fill="#5661F2">Event</text><line x1="148" y1="212" x2="196" y2="212" stroke="#5661F2" stroke-width="2"/>
<text x="228" y="200" font-size="13.5" class="tsx">Reviews</text>
<line x1="64" y1="212" x2="1216" y2="212" class="ln"/>
<rect x="64" y="236" width="566" height="74" rx="14" class="card"/><rect x="76" y="248" width="50" height="50" rx="12" fill="#7B6CF6"/><text x="142" y="270" font-size="10" font-weight="500" class="red">TUE, DEC 14 · 6:00 PM</text><text x="142" y="290" font-size="14" font-weight="500" class="tp">A virtual evening of smooth jazz</text>
<rect x="650" y="236" width="566" height="74" rx="14" class="card"/><rect x="662" y="248" width="50" height="50" rx="12" fill="#F2A78D"/><text x="728" y="270" font-size="10" font-weight="500" class="red">WED, DEC 15 · 2:00 PM</text><text x="728" y="290" font-size="14" font-weight="500" class="tp">Jo malone london's mother's day</text>
<rect x="64" y="326" width="566" height="74" rx="14" class="card"/><rect x="76" y="338" width="50" height="50" rx="12" fill="#BFE3D6"/><text x="142" y="360" font-size="10" font-weight="500" class="red">SAT, DEC 18 · 10:00 AM</text><text x="142" y="380" font-size="14" font-weight="500" class="tp">Women's leadership conference</text>
<rect x="650" y="326" width="566" height="74" rx="14" class="card"/><rect x="662" y="338" width="50" height="50" rx="12" fill="#F4D06A"/><text x="728" y="360" font-size="10" font-weight="500" class="red">SUN, DEC 19 · 7:00 PM</text><text x="728" y="380" font-size="14" font-weight="500" class="tp">International gala music festival</text>
</svg>
