<svg viewBox="0 0 1280 800" width="1280" height="800" xmlns="http://www.w3.org/2000/svg">
<defs><style>
text{font-family:Inter,Arial,sans-serif}
.tp{fill:#2B2A28}.tsx{fill:#6B6A64}.tm{fill:#9A9991}.white{fill:#FFFFFF}
.blue{fill:#5661F2}
.card{fill:#FFFFFF;stroke:#E8E6DF;stroke-width:1}
.ln{stroke:#E8E6DF;stroke-width:1}
.st{fill:#F2C94C}.se{fill:#D7D5CD}
.icoW{fill:none;stroke:#FFFFFF;stroke-width:1.7;stroke-linecap:round;stroke-linejoin:round}
.icoB{fill:none;stroke:#5661F2;stroke-width:1.7;stroke-linecap:round;stroke-linejoin:round}
</style></defs>
<rect width="1280" height="800" fill="#FFFFFF"/>
<rect x="0" y="0" width="1280" height="44" fill="#F4F2EC"/><line x1="0" y1="44" x2="1280" y2="44" class="ln"/>
<circle cx="22" cy="22" r="5" fill="#EB5757"/><circle cx="40" cy="22" r="5" fill="#F2C94C"/><circle cx="58" cy="22" r="5" fill="#27AE60"/>
<rect x="86" y="12" width="420" height="22" rx="7" class="card"/><text x="100" y="27" font-size="11" class="tm">events.school.edu/o/ashfak/reviews</text>
<circle cx="104" cy="120" r="32" fill="#C9CDFB"/>
<text x="150" y="114" font-size="19" font-weight="500" class="tp">Ashfak Sayem</text>
<g transform="translate(156 132)"><path d="M0 -6 L1.76 -1.85 6.24 -1.85 2.6 0.9 3.71 5.1 0 2.4 -3.71 5.1 -2.6 0.9 -6.24 -1.85 -1.76 -1.85 Z" class="st"/></g><text x="170" y="136" font-size="12.5" class="tsx">4.8 · 128 reviews</text>
<rect x="1026" y="104" width="100" height="38" rx="10" class="blue"/><circle cx="1050" cy="123" r="5" class="icoW"/><path d="M1042 134 a8 7 0 0 1 16 0" class="icoW"/><text x="1078" y="128" font-size="12.5" font-weight="500" class="white">Follow</text>
<rect x="1136" y="104" width="100" height="38" rx="10" class="card"/><path d="M1156 116 h14 v10 h-9 l-3 3 v-3 h-2 z" class="icoB"/><text x="1184" y="128" font-size="12.5" fill="#5661F2">Message</text>
<text x="64" y="200" font-size="13.5" class="tsx">About</text>
<text x="148" y="200" font-size="13.5" class="tsx">Event</text>
<text x="228" y="200" font-size="13.5" font-weight="500" fill="#5661F2">Reviews</text><line x1="228" y1="212" x2="294" y2="212" stroke="#5661F2" stroke-width="2"/>
<line x1="64" y1="212" x2="1216" y2="212" class="ln"/>
<circle cx="84" cy="252" r="20" fill="#FAD4C0"/><text x="120" y="246" font-size="13.5" font-weight="500" class="tp">Maria Lopez</text><text x="1216" y="246" text-anchor="end" font-size="11" class="tm">2 days ago</text>
<g transform="translate(124 262)"><path d="M0 -6 L1.76 -1.85 6.24 -1.85 2.6 0.9 3.71 5.1 0 2.4 -3.71 5.1 -2.6 0.9 -6.24 -1.85 -1.76 -1.85 Z" class="st"/></g><g transform="translate(140 262)"><path d="M0 -6 L1.76 -1.85 6.24 -1.85 2.6 0.9 3.71 5.1 0 2.4 -3.71 5.1 -2.6 0.9 -6.24 -1.85 -1.76 -1.85 Z" class="st"/></g><g transform="translate(156 262)"><path d="M0 -6 L1.76 -1.85 6.24 -1.85 2.6 0.9 3.71 5.1 0 2.4 -3.71 5.1 -2.6 0.9 -6.24 -1.85 -1.76 -1.85 Z" class="st"/></g><g transform="translate(172 262)"><path d="M0 -6 L1.76 -1.85 6.24 -1.85 2.6 0.9 3.71 5.1 0 2.4 -3.71 5.1 -2.6 0.9 -6.24 -1.85 -1.76 -1.85 Z" class="st"/></g><g transform="translate(188 262)"><path d="M0 -6 L1.76 -1.85 6.24 -1.85 2.6 0.9 3.71 5.1 0 2.4 -3.71 5.1 -2.6 0.9 -6.24 -1.85 -1.76 -1.85 Z" class="st"/></g>
<text x="120" y="288" font-size="12.5" class="tsx">One of the best events I've been to on campus. Great sound, smooth entry, friendly staff.</text>
<line x1="64" y1="316" x2="1216" y2="316" class="ln"/>
<circle cx="84" cy="356" r="20" fill="#BFE3D6"/><text x="120" y="350" font-size="13.5" font-weight="500" class="tp">James Carter</text><text x="1216" y="350" text-anchor="end" font-size="11" class="tm">1 week ago</text>
<g transform="translate(124 366)"><path d="M0 -6 L1.76 -1.85 6.24 -1.85 2.6 0.9 3.71 5.1 0 2.4 -3.71 5.1 -2.6 0.9 -6.24 -1.85 -1.76 -1.85 Z" class="st"/></g><g transform="translate(140 366)"><path d="M0 -6 L1.76 -1.85 6.24 -1.85 2.6 0.9 3.71 5.1 0 2.4 -3.71 5.1 -2.6 0.9 -6.24 -1.85 -1.76 -1.85 Z" class="st"/></g><g transform="translate(156 366)"><path d="M0 -6 L1.76 -1.85 6.24 -1.85 2.6 0.9 3.71 5.1 0 2.4 -3.71 5.1 -2.6 0.9 -6.24 -1.85 -1.76 -1.85 Z" class="st"/></g><g transform="translate(172 366)"><path d="M0 -6 L1.76 -1.85 6.24 -1.85 2.6 0.9 3.71 5.1 0 2.4 -3.71 5.1 -2.6 0.9 -6.24 -1.85 -1.76 -1.85 Z" class="st"/></g><g transform="translate(188 366)"><path d="M0 -6 L1.76 -1.85 6.24 -1.85 2.6 0.9 3.71 5.1 0 2.4 -3.71 5.1 -2.6 0.9 -6.24 -1.85 -1.76 -1.85 Z" class="se"/></g>
<text x="120" y="392" font-size="12.5" class="tsx">Loved the lineup. Could use a bit more seating, but overall a fantastic night out.</text>
<line x1="64" y1="420" x2="1216" y2="420" class="ln"/>
<circle cx="84" cy="460" r="20" fill="#C9CDFB"/><text x="120" y="454" font-size="13.5" font-weight="500" class="tp">Priya Nair</text><text x="1216" y="454" text-anchor="end" font-size="11" class="tm">2 weeks ago</text>
<g transform="translate(124 470)"><path d="M0 -6 L1.76 -1.85 6.24 -1.85 2.6 0.9 3.71 5.1 0 2.4 -3.71 5.1 -2.6 0.9 -6.24 -1.85 -1.76 -1.85 Z" class="st"/></g><g transform="translate(140 470)"><path d="M0 -6 L1.76 -1.85 6.24 -1.85 2.6 0.9 3.71 5.1 0 2.4 -3.71 5.1 -2.6 0.9 -6.24 -1.85 -1.76 -1.85 Z" class="st"/></g><g transform="translate(156 470)"><path d="M0 -6 L1.76 -1.85 6.24 -1.85 2.6 0.9 3.71 5.1 0 2.4 -3.71 5.1 -2.6 0.9 -6.24 -1.85 -1.76 -1.85 Z" class="st"/></g><g transform="translate(172 470)"><path d="M0 -6 L1.76 -1.85 6.24 -1.85 2.6 0.9 3.71 5.1 0 2.4 -3.71 5.1 -2.6 0.9 -6.24 -1.85 -1.76 -1.85 Z" class="st"/></g><g transform="translate(188 470)"><path d="M0 -6 L1.76 -1.85 6.24 -1.85 2.6 0.9 3.71 5.1 0 2.4 -3.71 5.1 -2.6 0.9 -6.24 -1.85 -1.76 -1.85 Z" class="st"/></g>
<text x="120" y="496" font-size="12.5" class="tsx">Super well organized. The reminders and ticket flow made everything easy.</text>
</svg>
